<svg width="633" height="195" viewBox="0 0 633 195" fill="none" xmlns="http://www.w3.org/2000/svg">
<path d="M1.53206 28.4999L11.1118 4.03092L17.532 28.552L26.571 16.5813L34.5319 28.6073L43.553 22.1366L49.5318 28.6561L62.0024 37.6968L72.0317 28.7294L86.4746 46.2765L96.0316 28.8075L109.571 16.8515L124.031 28.8986L140.786 104.454L163.842 87.0285L184.313 96.0952L202.342 87.1539L217.813 96.2043L234.005 37.2567L250.948 54.8119L269.505 37.3722L280.389 72.9079L293.004 37.4487L305.475 46.4894L322.504 37.5448L335.043 25.5855L348.504 37.6294L365.475 46.6847L375.004 37.7157L388.39 72.7594L402.869 79.3066L420.812 96.8651L433.784 105.407L456.305 98.9806L467.284 105.516L479.668 141.057L492.784 105.599L505.889 73.1419L516.284 105.676L540.283 105.754L549.226 123.283L562.783 105.827L582.363 81.3909L598.783 105.944L611.167 141.485L624.283 106.027" stroke="#3A6FF8" stroke-width="2" stroke-linecap="round"/>
<path opacity="0.02" d="M11.1118 4.03092L1.53206 28.4999L0.999831 191.999L623.997 194.027L624.283 106.027L611.167 141.485L598.783 105.944L582.363 81.3909L562.783 105.827L549.226 123.283L540.283 105.754L516.284 105.676L505.889 73.1419L492.784 105.599L479.668 141.057L467.284 105.516L456.305 98.9806L433.784 105.407L420.812 96.8651L402.869 79.3066L388.39 72.7594L375.004 37.7157L365.475 46.6847L348.504 37.6294L335.043 25.5855L322.504 37.5448L305.475 46.4894L293.004 37.4487L280.389 72.9079L269.505 37.3722L250.948 54.8119L234.005 37.2567L217.813 96.2043L202.342 87.1539L184.313 96.0952L163.842 87.0285L140.786 104.454L124.031 28.8986L109.571 16.8515L96.0316 28.8075L86.4746 46.2765L72.0317 28.7294L62.0024 37.6968L49.5318 28.6561L43.553 22.1366L34.5319 28.6073L26.571 16.5813L17.532 28.552L11.1118 4.03092Z" fill="#3A6FF8"/>
<g opacity="0.1">
<rect x="7.05176" y="175.97" width="8" height="16" transform="rotate(0.186512 7.05176 175.97)" fill="#3A6FF8"/>
<rect x="20.0713" y="170.012" width="8" height="22" transform="rotate(0.186512 20.0713 170.012)" fill="#3A6FF8"/>
<rect x="33.104" y="160.054" width="8" height="32" transform="rotate(0.186512 33.104 160.054)" fill="#3A6FF8"/>
<rect x="46.0552" y="175.097" width="8" height="17" transform="rotate(0.186512 46.0552 175.097)" fill="#3A6FF8"/>
<rect x="59.0322" y="182.139" width="8" height="10" transform="rotate(0.186512 59.0322 182.139)" fill="#3A6FF8"/>
<rect x="72.042" y="179.181" width="8" height="13" transform="rotate(0.186512 72.042 179.181)" fill="#3A6FF8"/>
<rect x="85.0776" y="168.224" width="8" height="24" transform="rotate(0.186512 85.0776 168.224)" fill="#3A6FF8"/>
<rect x="98.0449" y="178.266" width="8" height="14" transform="rotate(0.186512 98.0449 178.266)" fill="#3A6FF8"/>
<rect x="111.025" y="184.308" width="8" height="8" transform="rotate(0.186512 111.025 184.308)" fill="#3A6FF8"/>
<rect x="124.051" y="176.351" width="8" height="16" transform="rotate(0.186512 124.051 176.351)" fill="#3A6FF8"/>
<rect x="137.071" y="170.393" width="8" height="22" transform="rotate(0.186512 137.071 170.393)" fill="#3A6FF8"/>
<rect x="150.103" y="160.435" width="8" height="32" transform="rotate(0.186512 150.103 160.435)" fill="#3A6FF8"/>
<rect x="163.054" y="175.478" width="8" height="17" transform="rotate(0.186512 163.054 175.478)" fill="#3A6FF8"/>
<rect x="176.031" y="182.52" width="8" height="10" transform="rotate(0.186512 176.031 182.52)" fill="#3A6FF8"/>
<rect x="189.044" y="178.562" width="8" height="14" transform="rotate(0.186512 189.044 178.562)" fill="#3A6FF8"/>
<rect x="202.025" y="184.604" width="8" height="8" transform="rotate(0.186512 202.025 184.604)" fill="#3A6FF8"/>
<rect x="215.103" y="160.647" width="8" height="32" transform="rotate(0.186512 215.103 160.647)" fill="#3A6FF8"/>
<rect x="228.054" y="175.689" width="8" height="17" transform="rotate(0.186512 228.054 175.689)" fill="#3A6FF8"/>
<rect x="241.031" y="182.731" width="8" height="10" transform="rotate(0.186512 241.031 182.731)" fill="#3A6FF8"/>
<rect x="254.041" y="179.773" width="8" height="13" transform="rotate(0.186512 254.041 179.773)" fill="#3A6FF8"/>
<rect x="267.077" y="168.816" width="8" height="24" transform="rotate(0.186512 267.077 168.816)" fill="#3A6FF8"/>
<rect x="280.05" y="176.858" width="8" height="16" transform="rotate(0.186512 280.05 176.858)" fill="#3A6FF8"/>
<rect x="293.044" y="178.9" width="8" height="14" transform="rotate(0.186512 293.044 178.9)" fill="#3A6FF8"/>
<rect x="306.024" y="184.943" width="8" height="8" transform="rotate(0.186512 306.024 184.943)" fill="#3A6FF8"/>
<rect x="319.103" y="160.985" width="8" height="32" transform="rotate(0.186512 319.103 160.985)" fill="#3A6FF8"/>
<rect x="332.053" y="176.028" width="8" height="17" transform="rotate(0.186512 332.053 176.028)" fill="#3A6FF8"/>
<rect x="345.031" y="183.07" width="8" height="10" transform="rotate(0.186512 345.031 183.07)" fill="#3A6FF8"/>
<rect x="358.043" y="179.112" width="8" height="14" transform="rotate(0.186512 358.043 179.112)" fill="#3A6FF8"/>
<rect x="371.024" y="185.154" width="8" height="8" transform="rotate(0.186512 371.024 185.154)" fill="#3A6FF8"/>
<rect x="384.102" y="161.197" width="8" height="32" transform="rotate(0.186512 384.102 161.197)" fill="#3A6FF8"/>
<rect x="397.053" y="176.239" width="8" height="17" transform="rotate(0.186512 397.053 176.239)" fill="#3A6FF8"/>
<rect x="410.03" y="183.281" width="8" height="10" transform="rotate(0.186512 410.03 183.281)" fill="#3A6FF8"/>
<rect x="423.076" y="169.324" width="8" height="24" transform="rotate(0.186512 423.076 169.324)" fill="#3A6FF8"/>
<rect x="436.043" y="179.366" width="8" height="14" transform="rotate(0.186512 436.043 179.366)" fill="#3A6FF8"/>
<rect x="449.023" y="185.408" width="8" height="8" transform="rotate(0.186512 449.023 185.408)" fill="#3A6FF8"/>
<rect x="462.049" y="177.451" width="8" height="16" transform="rotate(0.186512 462.049 177.451)" fill="#3A6FF8"/>
<rect x="475.069" y="171.493" width="8" height="22" transform="rotate(0.186512 475.069 171.493)" fill="#3A6FF8"/>
<rect x="488.102" y="161.536" width="8" height="32" transform="rotate(0.186512 488.102 161.536)" fill="#3A6FF8"/>
<rect x="501.053" y="176.578" width="8" height="17" transform="rotate(0.186512 501.053 176.578)" fill="#3A6FF8"/>
<rect x="514.03" y="183.62" width="8" height="10" transform="rotate(0.186512 514.03 183.62)" fill="#3A6FF8"/>
<rect x="527.042" y="179.663" width="8" height="14" transform="rotate(0.186512 527.042 179.663)" fill="#3A6FF8"/>
<rect x="540.023" y="185.705" width="8" height="8" transform="rotate(0.186512 540.023 185.705)" fill="#3A6FF8"/>
<rect x="553.068" y="171.747" width="8" height="22" transform="rotate(0.186512 553.068 171.747)" fill="#3A6FF8"/>
<rect x="566.101" y="161.79" width="8" height="32" transform="rotate(0.186512 566.101 161.79)" fill="#3A6FF8"/>
<rect x="579.052" y="176.832" width="8" height="17" transform="rotate(0.186512 579.052 176.832)" fill="#3A6FF8"/>
<rect x="592.029" y="183.874" width="8" height="10" transform="rotate(0.186512 592.029 183.874)" fill="#3A6FF8"/>
<rect x="605.068" y="171.917" width="8" height="22" transform="rotate(0.186512 605.068 171.917)" fill="#3A6FF8"/>
<rect x="618.101" y="161.958" width="8" height="32" transform="rotate(0.186512 618.101 161.958)" fill="#3A6FF8"/>
</g>
<line x1="5" y1="193.5" x2="633" y2="193.5" stroke="#31353F"/>
</svg>
